<?xml version="1.0" encoding="UTF-8"?>
<svg width="105px" height="101px" viewBox="0 0 105 101" version="1.1" xmlns="http://www.w3.org/2000/svg" xmlns:xlink="http://www.w3.org/1999/xlink">
    <!-- Generator: Sketch 41.2 (35397) - http://www.bohemiancoding.com/sketch -->
    <title>flower</title>
    <desc>Created with Sketch.</desc>
    <defs></defs>
    <g id="Page-1" stroke="none" stroke-width="1" fill="none" fill-rule="evenodd">
        <g id="Artboard" transform="translate(-59.000000, -61.000000)">
            <g id="flower" transform="translate(59.000000, 62.000000)">
                <g>
                    <path d="M54.8093858,37.7319529 C54.8093858,37.7319529 38.6310094,10.7589235 32.2258637,7.05692908 C25.8207179,3.35493468 13.7790438,0.507246676 19.6717779,14.1761491 C25.5645121,27.8450515 46.749182,43.5352996 46.749182,43.5352996 C46.749182,43.5352996 19.6717779,45.7854859 16.0848963,46.9245611 C12.4980147,48.0636363 -11.0729217,55.7523939 6.34907475,60.5934635 C23.7710712,65.4345331 49.3284472,53.6911564 49.3284472,53.6911564 C49.3284472,53.6911564 41.9130597,71.8266149 41.2682434,78.7180892 C40.6234271,85.6095634 40.2847349,98.8590371 43.5251005,99.3925119 C46.765466,99.9259867 53.5197532,85.6095634 54.8093858,80.1689258 C56.0990184,74.7282883 56.0990184,56.3489242 56.0990184,55.1419931 C56.0990184,53.935062 64.1876579,67.2433214 78.0227727,70.3757782 C91.8578876,73.508235 101.483762,73.403302 99.946527,68.5622324 C98.409292,63.7211628 80.2796298,53.6911564 80.2796298,53.6911564 L61.9023651,43.5352996 C61.9023651,43.5352996 67.3607925,38.8655296 74.1538749,32.2913153 C80.9469573,25.717101 83.2262955,21.3592903 84.7933439,18.871076 C88.3802255,13.1757 92.8535477,4.36270917 84.7933439,5.45083668 C76.7331401,6.53896419 72.219426,12.7050201 66.0936711,18.871076 C59.9679162,25.0371319 54.8093858,37.7319529 54.8093858,37.7319529 Z" id="Path" fill="#FFDDEE"></path>
                    <path d="M58.3649413,33.7319529 C58.3649413,33.7319529 42.186565,6.75892348 35.7814192,3.05692908 C29.3762734,-0.645065324 17.3345994,-3.49275332 23.2273335,10.1761491 C29.1200676,23.8450515 50.3047376,39.5352996 50.3047376,39.5352996 C50.3047376,39.5352996 23.2273335,41.7854859 19.6404519,42.9245611 C16.0535702,44.0636363 -7.51736618,51.7523939 9.90463031,56.5934635 C27.3266268,61.4345331 52.8840028,49.6911564 52.8840028,49.6911564 C52.8840028,49.6911564 45.4686153,67.8266149 44.823799,74.7180892 C44.1789827,81.6095634 43.8402905,94.8590371 47.080656,95.3925119 C50.3210216,95.9259867 57.0753087,81.6095634 58.3649413,76.1689258 C59.654574,70.7282883 59.654574,52.3489242 59.654574,51.1419931 C59.654574,49.935062 67.7432134,63.2433214 81.5783283,66.3757782 C95.4134431,69.508235 105.039318,69.403302 103.502083,64.5622324 C101.964848,59.7211628 83.8351853,49.6911564 83.8351853,49.6911564 L65.4579207,39.5352996 C65.4579207,39.5352996 70.916348,34.8655296 77.7094304,28.2913153 C84.5025129,21.717101 86.781851,17.3592903 88.3488995,14.871076 C91.9357811,9.1757 96.4091032,0.362709171 88.3488995,1.45083668 C80.2886957,2.53896419 75.7749815,8.7050201 69.6492267,14.871076 C63.5234718,21.0371319 58.3649413,33.7319529 58.3649413,33.7319529 Z" id="Path" stroke="#D8AAC0" stroke-width="2"></path>
                    <path d="M59.3321658,36.6336262 C59.3321658,36.6336262 51.5943702,38.0844629 54.1736354,43.5251005 C56.7529006,48.965738 60.7924714,45.829382 62.2338392,44.613228 C63.6752069,43.397074 63.2010636,38.8098813 60.2993903,38.0844629" id="Path-2" stroke="#D8AAC0" stroke-width="2"></path>
                </g>
            </g>
        </g>
    </g>
</svg>