<?xml version="1.0" encoding="UTF-8"?>
<svg width="62px" height="62px" viewBox="0 0 62 62" version="1.1" xmlns="http://www.w3.org/2000/svg" xmlns:xlink="http://www.w3.org/1999/xlink">
    <!-- Generator: Sketch 41.2 (35397) - http://www.bohemiancoding.com/sketch -->
    <title>flower-icon</title>
    <desc>Created with Sketch.</desc>
    <defs></defs>
    <g id="Page-1" stroke="none" stroke-width="1" fill="none" fill-rule="evenodd">
        <g id="Artboard" transform="translate(-416.000000, -305.000000)">
            <g id="flower-icon" transform="translate(417.000000, 306.000000)">
                <circle id="Oval-2" stroke="#000000" fill="#FFFFFF" cx="30" cy="30" r="30"></circle>
                <g id="flower" transform="translate(6.000000, 11.000000)">
                    <path d="M23.7155996,16.2247397 C23.7155996,16.2247397 16.7153406,4.6263371 13.9438833,3.0344795 C11.172426,1.44262191 5.96208628,0.218116071 8.511827,6.0957441 C11.0615677,11.9733721 20.2280114,18.7201788 20.2280114,18.7201788 C20.2280114,18.7201788 8.511827,19.6877589 6.95981091,20.1775613 C5.40779482,20.6673636 -4.79116806,23.9735294 2.74719581,26.0551893 C10.2855597,28.1368492 21.3440397,23.0871972 21.3440397,23.0871972 C21.3440397,23.0871972 18.1354585,30.8854444 17.8564515,33.8487783 C17.5774444,36.8121123 17.4308949,42.5093859 18.8329762,42.7387801 C20.2350574,42.9681743 23.1575855,36.8121123 23.7155996,34.4726381 C24.2736137,32.133164 24.2736137,24.2300374 24.2736137,23.711057 C24.2736137,23.1920766 27.7735058,28.9146282 33.7598536,30.2615846 C39.7462014,31.6085411 43.9112432,31.5634199 43.2460934,29.4817599 C42.5809437,27.4001 34.7363783,23.0871972 34.7363783,23.0871972 L26.7846772,18.7201788 C26.7846772,18.7201788 29.1464967,16.7121777 32.0858113,13.8852656 C35.0251258,11.0583534 36.0113778,9.18449482 36.6894276,8.11456268 C38.2414437,5.665551 40.1770158,1.87596494 36.6894276,2.34385977 C33.2018395,2.8117546 31.2487901,5.46315864 28.5982231,8.11456268 C25.9476561,10.7659667 23.7155996,16.2247397 23.7155996,16.2247397 Z" id="Path" fill="#FFDDEE"></path>
                    <path d="M25.2540612,14.5047397 C25.2540612,14.5047397 18.2538022,2.9063371 15.4823449,1.3144795 C12.7108875,-0.277378089 7.50054782,-1.50188393 10.0502885,4.3757441 C12.6000293,10.2533721 21.766473,17.0001788 21.766473,17.0001788 C21.766473,17.0001788 10.0502885,17.9677589 8.49827245,18.4575613 C6.94625636,18.9473636 -3.25270652,22.2535294 4.28565734,24.3351893 C11.8240212,26.4168492 22.8825012,21.3671972 22.8825012,21.3671972 C22.8825012,21.3671972 19.6739201,29.1654444 19.394913,32.1287783 C19.115906,35.0921123 18.9693565,40.7893859 20.3714377,41.0187801 C21.773519,41.2481743 24.6960471,35.0921123 25.2540612,32.7526381 C25.8120753,30.413164 25.8120753,22.5100374 25.8120753,21.991057 C25.8120753,21.4720766 29.3119673,27.1946282 35.2983151,28.5415846 C41.2846629,29.8885411 45.4497047,29.8434199 44.784555,27.7617599 C44.1194052,25.6801 36.2748398,21.3671972 36.2748398,21.3671972 L28.3231388,17.0001788 C28.3231388,17.0001788 30.6849583,14.9921777 33.6242728,12.1652656 C36.5635873,9.33835343 37.5498394,7.46449482 38.2278892,6.39456268 C39.7799053,3.945551 41.7154774,0.155964943 38.2278892,0.623859774 C34.740301,1.0917546 32.7872516,3.74315864 30.1366846,6.39456268 C27.4861176,9.04596672 25.2540612,14.5047397 25.2540612,14.5047397 Z" id="Path" stroke="#000000"></path>
                    <path d="M25.6725717,15.7524593 C25.6725717,15.7524593 22.3244871,16.3763191 23.4405153,18.7157932 C24.5565435,21.0552674 26.3044347,19.7066343 26.9281035,19.183688 C27.5517722,18.6607418 27.3466141,16.6882489 26.0910823,16.3763191" id="Path-2" stroke="#000000"></path>
                </g>
            </g>
        </g>
    </g>
</svg>