<?xml version="1.0" encoding="UTF-8"?>
<svg width="104px" height="101px" viewBox="0 0 104 101" version="1.1" xmlns="http://www.w3.org/2000/svg" xmlns:xlink="http://www.w3.org/1999/xlink">
    <!-- Generator: Sketch 41.2 (35397) - http://www.bohemiancoding.com/sketch -->
    <title>hands</title>
    <desc>Created with Sketch.</desc>
    <defs></defs>
    <g id="Page-1" stroke="none" stroke-width="1" fill="none" fill-rule="evenodd">
        <g id="Artboard" transform="translate(-352.000000, -52.000000)">
            <g id="hands" transform="translate(352.000000, 53.000000)">
                <path d="M103.106771,58.0645161 C103.106771,58.0645161 91.3129568,51.6129032 91.3129568,46.2365591 C91.3129568,40.8602151 81.6634722,31.1827957 76.3026475,24.7311828 C70.9418227,18.2795699 70.9418227,7.52688172 66.6531629,13.9784946 C62.3645032,20.4301075 63.4366681,33.3333333 66.6531629,35.483871 C69.8696578,37.6344086 37.7047093,37.6344086 36.6325444,36.5591398 C35.5603794,35.483871 35.5603794,5.37634409 33.4160495,5.37634409 C31.2717197,5.37634409 26.9830599,5.37634409 26.9830599,9.67741935 C26.9830599,13.9784946 25.9108949,37.6344086 23.766565,37.6344086 C21.6222351,37.6344086 6.61192584,43.0107527 8.75625573,45.1612903 C10.9005856,47.311828 13.0449155,48.3870968 13.0449155,48.3870968 C13.0449155,48.3870968 3.39543099,48.3870968 2.32326604,50.5376344 C1.25110109,52.688172 2.32326604,55.9139785 4.46759594,55.9139785 C6.61192584,55.9139785 -4.68837895,59.8281668 2.32326604,64.516129 C5.53976089,66.6666667 8.75625573,66.6666667 8.75625573,66.6666667 C8.75625573,66.6666667 6.61192584,68.8172043 7.68409078,70.9677419 C8.75625573,73.1182796 17.3335753,74.1935484 18.4057403,75.2688172 C19.4779052,76.344086 21.6222351,91.3978495 22.6944001,91.3978495 L28.0552248,91.3978495 C28.0552248,91.3978495 41.9933691,100 52.7150186,100 C63.4366681,100 64.5088331,96.7741935 64.5088331,96.7741935 L66.6531629,92.4731183 C66.6531629,92.4731183 67.7253279,94.6236559 73.0861526,94.6236559 C78.4469774,94.6236559 80.5913073,97.8494624 80.5913073,97.8494624 C80.5913073,97.8494624 96.6737815,83.8709677 96.6737815,77.4193548 C96.6737815,70.9677419 100.962441,62.3655914 100.962441,62.3655914 L103.106771,58.0645161 Z" id="Path-27" fill="#CEE9F4"></path>
                <g id="Group-2" transform="translate(3.216495, 0.000000)" stroke="#88BDD3" stroke-width="2">
                    <path d="M25.7319588,88.172043 C25.7319588,88.172043 23.5876289,83.8709677 23.5876289,81.7204301 C23.5876289,79.5698925 20.371134,69.8924731 20.371134,69.8924731 C20.371134,69.8924731 19.2989691,68.8172043 22.5154639,62.3655914 C25.7319588,55.9139785 30.0206186,49.4623656 31.0927835,48.3870968 C32.1649485,47.311828 38.5979381,45.1612903 39.6701031,45.1612903 C40.742268,45.1612903 46.1030928,39.7849462 47.1752577,39.7849462 C48.2474227,39.7849462 53.6082474,40.8602151 51.4639175,45.1612903 C49.3195876,49.4623656 43.9587629,54.8387097 41.814433,54.8387097 C41.814433,58.0645161 39.6701031,63.4408602 39.6701031,63.4408602 M41.814433,63.4408602 C41.814433,63.4408602 43.9902582,64.8402226 45.0309278,66.6666667 C46.0715975,68.4931107 46.1030928,70.9677419 46.1030928,70.9677419" id="Path-13"></path>
                    <path d="M23.5876289,58.0645161 C23.5876289,58.0645161 22.5154639,51.6129032 23.5876289,48.3870968 C24.6597938,45.1612903 24.6597938,37.6344086 24.6597938,35.483871 C24.6597938,33.3333333 26.8041237,16.1290323 26.8041237,16.1290323 C26.8041237,16.1290323 27.8762887,10.7526882 27.8762887,8.60215054 C27.8762887,6.4516129 27.8762887,2.15053763 28.9484536,2.15053763 C30.0206186,2.15053763 33.2371134,-2.15053763 34.3092784,5.37634409 C35.3814433,12.9032258 35.3814433,13.9784946 35.3814433,15.0537634 L35.3814433,34.4086022 C35.3814433,35.483871 36.4536082,38.7096774 36.4536082,38.7096774" id="Path-14"></path>
                    <path d="M18.2268041,69.8924731 C18.2268041,69.8924731 8.57731959,66.6666667 8.57731959,64.516129 C8.57731959,62.3655914 9.64948454,61.2903226 10.7216495,61.2903226 C11.7938144,61.2903226 15.0103093,62.3655914 16.0824742,62.3655914 L21.443299,62.3655914" id="Path-15"></path>
                    <path d="M22.5154639,34.4086022 C22.5154639,34.4086022 13.9381443,35.483871 11.7938144,36.5591398 C9.64948454,37.6344086 6.43298969,41.9354839 11.7938144,43.0107527" id="Path-16"></path>
                    <path d="M22.5154639,43.0107527 C22.5154639,43.0107527 4.28865979,44.0860215 2.1443299,46.2365591 C4.3298698e-14,48.3870968 3.21649485,51.6129032 5.36082474,51.6129032" id="Path-17"></path>
                    <path d="M21.443299,50.5376344 C21.443299,50.5376344 11.7938144,51.6129032 9.64948454,51.6129032 C7.50515464,51.6129032 -5.61738514e-14,52.688172 -5.68434189e-14,54.8387097 C-5.68434189e-14,56.9892473 -1.17550872e-13,60.2150538 4.28865979,60.2150538 C8.57731959,60.2150538 13.9381443,61.2903226 13.9381443,61.2903226" id="Path-18"></path>
                    <path d="M64.3298969,92.4731183 C64.3298969,92.4731183 69.6907216,80.6451613 69.6907216,77.4193548 L69.6907216,64.516129 L69.6907216,56.9892473 C69.6907216,55.9139785 69.6907216,47.311828 68.6185567,46.2365591 C67.5463918,45.1612903 68.6185567,40.8602151 63.257732,41.9354839 C57.8969072,43.0107527 57.8969072,44.0860215 57.8969072,44.0860215 C57.8969072,44.0860215 57.8969072,39.7849462 54.6804124,39.7849462 C51.4639175,39.7849462 53.6082474,39.7849462 51.4639175,40.8602151 C49.3195876,41.9354839 50.3917526,37.6344086 48.2474227,36.5591398 C46.1030928,35.483871 40.742268,34.4086022 39.6701031,37.6344086 C37.5257732,38.7096774 36.4536082,45.1612903 36.4536082,45.1612903" id="Path-19"></path>
                    <path d="M47.1752577,51.6129032 L47.1752577,58.0645161 C47.1752577,59.1397849 50.3917526,60.2150538 54.6804124,55.9139785" id="Path-20"></path>
                    <path d="M57.8969072,46.2365591 C57.8969072,46.2365591 54.6804124,51.6129032 54.6804124,53.7634409 C54.6804124,55.9139785 55.7525773,59.1397849 58.9690722,58.0645161 C62.185567,56.9892473 64.3298969,48.3870968 64.3298969,48.3870968" id="Path-21"></path>
                    <path d="M36.4536082,34.5424604 C36.4536082,34.5424604 48.2474227,34.0523379 54.6804124,34.5424604 C61.1134021,35.0325829 67.5463918,34.0324894 68.6185567,34.503196" id="Path-22"></path>
                    <path d="M99.7113402,52.688172 C99.7113402,52.688172 92.2061856,46.2365591 91.1340206,41.9354839 C90.0618557,37.6344086 90.0618557,33.3333333 84.7010309,29.0322581 C79.3402062,24.7311828 76.1237113,20.4301075 75.0515464,18.2795699 C73.9793814,16.1290323 70.7628866,10.7526882 70.7628866,10.7526882 C70.7628866,10.7526882 65.4020619,8.60215054 65.4020619,15.0537634 C63.257732,21.5053763 67.5463918,29.0322581 67.5463918,29.0322581 C67.5463918,29.0322581 70.7628866,32.2580645 69.6907216,37.6344086" id="Path-23"></path>
                    <path d="M67.5463918,87.0967742 C67.5463918,87.0967742 70.7628866,90.3225806 75.0515464,90.3225806 C79.3402062,90.3225806 80.4123711,93.5483871 80.4123711,93.5483871" id="Path-24"></path>
                    <path d="M40.742268,45.1612903 C40.742268,45.1612903 42.8865979,46.2365591 43.9587629,47.311828 C45.0309278,48.3870968 49.3195876,46.2365591 49.3195876,45.1612903 C49.3195876,44.0860215 50.3917526,43.0107527 49.3195876,41.9354839 C48.2474227,40.8602151 46.1030928,40.8602151 46.1030928,40.8602151" id="Path-25"></path>
                    <path d="M48.2474227,54.8387097 C48.2474227,54.8387097 49.021764,54.8387097 50.6300115,54.8387097 C52.2382589,54.8387097 52.5360825,54.8387097 52.5360825,55.9139785 C52.5360825,56.9892473 52.5360825,58.0645161 51.4639175,58.0645161" id="Path-26"></path>
                </g>
            </g>
        </g>
    </g>
</svg>