<?xml version="1.0" encoding="UTF-8"?>
<svg width="60px" height="61px" viewBox="0 0 60 61" version="1.1" xmlns="http://www.w3.org/2000/svg" xmlns:xlink="http://www.w3.org/1999/xlink">
    <!-- Generator: Sketch 41.2 (35397) - http://www.bohemiancoding.com/sketch -->
    <title>hands-icon</title>
    <desc>Created with Sketch.</desc>
    <defs></defs>
    <g id="Page-1" stroke="none" stroke-width="1" fill="none" fill-rule="evenodd">
        <g id="Artboard" transform="translate(-276.000000, -306.000000)">
            <g id="hands-icon" transform="translate(277.000000, 306.000000)">
                <path d="M30,60 C39.5648959,60 45.5066345,56.9719556 51,50 C56.4933655,43.0280444 58,37.0036466 58,30 C58,17.8335157 50.8357475,8.7072848 41,4 C31.1642525,-0.707284802 31.4020582,1 27,1 C22.5979418,1 17,2 9,10 C6.22369364,12.7763064 -7.10542736e-15,25.7745928 -7.10542736e-15,30 C-7.10542736e-15,37.9831415 0.915137543,40.6249537 6,46 C11.0848625,51.3750463 21.414599,60 30,60 Z" id="Oval-2" stroke="#000000" fill="#FFFFFF"></path>
                <path d="M50.6220955,33.3870968 C50.6220955,33.3870968 45.6324048,30.6774194 45.6324048,28.4193548 C45.6324048,26.1612903 41.5499306,22.0967742 39.2818893,19.3870968 C37.0138481,16.6774194 37.0138481,12.1612903 35.1994151,14.8709677 C33.3849821,17.5806452 33.8385904,23 35.1994151,23.9032258 C36.5602398,24.8064516 22.9519924,24.8064516 22.4983842,24.3548387 C22.0447759,23.9032258 22.0447759,11.2580645 21.1375594,11.2580645 C20.2303429,11.2580645 18.4159099,11.2580645 18.4159099,13.0645161 C18.4159099,14.8709677 17.9623017,24.8064516 17.0550852,24.8064516 C16.1478687,24.8064516 9.79735324,27.0645161 10.7045697,27.9677419 C11.6117862,28.8709677 12.5190027,29.3225806 12.5190027,29.3225806 C12.5190027,29.3225806 8.4365285,29.3225806 7.98292025,30.2258065 C7.529312,31.1290323 7.98292025,32.483871 8.89013674,32.483871 C9.79735324,32.483871 5.01645506,34.12783 7.98292025,36.0967742 C9.34374499,37 10.7045697,37 10.7045697,37 C10.7045697,37 9.79735324,37.9032258 10.2509615,38.8064516 C10.7045697,39.7096774 14.3334357,40.1612903 14.787044,40.6129032 C15.2406522,41.0645161 16.1478687,47.3870968 16.6014769,47.3870968 L18.8695182,47.3870968 C18.8695182,47.3870968 24.7664254,51 29.3025079,51 C33.8385904,51 34.2921986,49.6451613 34.2921986,49.6451613 L35.1994151,47.8387097 C35.1994151,47.8387097 35.6530233,48.7419355 37.9210646,48.7419355 C40.1891058,48.7419355 41.0963223,50.0967742 41.0963223,50.0967742 C41.0963223,50.0967742 47.900446,44.2258065 47.900446,41.516129 C47.900446,38.8064516 49.714879,35.1935484 49.714879,35.1935484 L50.6220955,33.3870968 Z" id="Path-27" fill="#CEE9F4"></path>
                <g id="Group-2" transform="translate(8.360825, 9.000000)" stroke="#000000">
                    <path d="M10.8865979,37.0322581 C10.8865979,37.0322581 9.97938144,35.2258065 9.97938144,34.3225806 C9.97938144,33.4193548 8.6185567,29.3548387 8.6185567,29.3548387 C8.6185567,29.3548387 8.16494845,28.9032258 9.5257732,26.1935484 C10.8865979,23.483871 12.7010309,20.7741935 13.1546392,20.3225806 C13.6082474,19.8709677 16.3298969,18.9677419 16.7835052,18.9677419 C17.2371134,18.9677419 19.5051546,16.7096774 19.9587629,16.7096774 C20.4123711,16.7096774 22.6804124,17.1612903 21.7731959,18.9677419 C20.8659794,20.7741935 18.5979381,23.0322581 17.6907216,23.0322581 C17.6907216,24.3870968 16.7835052,26.6451613 16.7835052,26.6451613 M17.6907216,26.6451613 C17.6907216,26.6451613 18.6112631,27.2328935 19.0515464,28 C19.4918297,28.7671065 19.5051546,29.8064516 19.5051546,29.8064516" id="Path-13"></path>
                    <path d="M9.97938144,24.3870968 C9.97938144,24.3870968 9.5257732,21.6774194 9.97938144,20.3225806 C10.4329897,18.9677419 10.4329897,15.8064516 10.4329897,14.9032258 C10.4329897,14 11.3402062,6.77419355 11.3402062,6.77419355 C11.3402062,6.77419355 11.7938144,4.51612903 11.7938144,3.61290323 C11.7938144,2.70967742 11.7938144,0.903225806 12.2474227,0.903225806 C12.7010309,0.903225806 14.0618557,-0.903225806 14.5154639,2.25806452 C14.9690722,5.41935484 14.9690722,5.87096774 14.9690722,6.32258065 L14.9690722,14.4516129 C14.9690722,14.9032258 15.4226804,16.2580645 15.4226804,16.2580645" id="Path-14"></path>
                    <path d="M7.71134021,29.3548387 C7.71134021,29.3548387 3.62886598,28 3.62886598,27.0967742 C3.62886598,26.1935484 4.08247423,25.7419355 4.53608247,25.7419355 C4.98969072,25.7419355 6.35051546,26.1935484 6.80412371,26.1935484 L9.07216495,26.1935484" id="Path-15"></path>
                    <path d="M9.5257732,14.4516129 C9.5257732,14.4516129 5.89690722,14.9032258 4.98969072,15.3548387 C4.08247423,15.8064516 2.72164948,17.6129032 4.98969072,18.0645161" id="Path-16"></path>
                    <path d="M9.5257732,18.0645161 C9.5257732,18.0645161 1.81443299,18.516129 0.907216495,19.4193548 C-9.88098492e-15,20.3225806 1.36082474,21.6774194 2.26804124,21.6774194" id="Path-17"></path>
                    <path d="M9.07216495,21.2258065 C9.07216495,21.2258065 4.98969072,21.6774194 4.08247423,21.6774194 C3.17525773,21.6774194 2.83278555e-16,22.1290323 0,23.0322581 C0,23.9354839 -2.56839223e-14,25.2903226 1.81443299,25.2903226 C3.62886598,25.2903226 5.89690722,25.7419355 5.89690722,25.7419355" id="Path-18"></path>
                    <path d="M27.2164948,38.8387097 C27.2164948,38.8387097 29.4845361,33.8709677 29.4845361,32.516129 L29.4845361,27.0967742 L29.4845361,23.9354839 C29.4845361,23.483871 29.4845361,19.8709677 29.0309278,19.4193548 C28.5773196,18.9677419 29.0309278,17.1612903 26.7628866,17.6129032 C24.4948454,18.0645161 24.4948454,18.516129 24.4948454,18.516129 C24.4948454,18.516129 24.4948454,16.7096774 23.1340206,16.7096774 C21.7731959,16.7096774 22.6804124,16.7096774 21.7731959,17.1612903 C20.8659794,17.6129032 21.3195876,15.8064516 20.4123711,15.3548387 C19.5051546,14.9032258 17.2371134,14.4516129 16.7835052,15.8064516 C15.8762887,16.2580645 15.4226804,18.9677419 15.4226804,18.9677419" id="Path-19"></path>
                    <path d="M19.9587629,21.6774194 L19.9587629,24.3870968 C19.9587629,24.8387097 21.3195876,25.2903226 23.1340206,23.483871" id="Path-20"></path>
                    <path d="M24.4948454,19.4193548 C24.4948454,19.4193548 23.1340206,21.6774194 23.1340206,22.5806452 C23.1340206,23.483871 23.5876289,24.8387097 24.9484536,24.3870968 C26.3092784,23.9354839 27.2164948,20.3225806 27.2164948,20.3225806" id="Path-21"></path>
                    <path d="M15.4226804,14.52526 C15.4226804,14.52526 20.4123711,14.2801987 23.1340206,14.52526 C25.8556701,14.7703212 28.5773196,14.2702745 29.0309278,14.5056277" id="Path-22"></path>
                    <path d="M42.185567,22.1290323 C42.185567,22.1290323 39.0103093,19.4193548 38.556701,17.6129032 C38.1030928,15.8064516 38.1030928,14 35.8350515,12.1935484 C33.5670103,10.3870968 32.2061856,8.58064516 31.7525773,7.67741935 C31.2989691,6.77419355 29.9381443,4.51612903 29.9381443,4.51612903 C29.9381443,4.51612903 27.6701031,3.61290323 27.6701031,6.32258065 C26.7628866,9.03225806 28.5773196,12.1935484 28.5773196,12.1935484 C28.5773196,12.1935484 29.9381443,13.5483871 29.4845361,15.8064516" id="Path-23"></path>
                    <path d="M28.5773196,36.5806452 C28.5773196,36.5806452 29.9381443,37.9354839 31.7525773,37.9354839 C33.5670103,37.9354839 34.0206186,39.2903226 34.0206186,39.2903226" id="Path-24"></path>
                    <path d="M17.2371134,18.9677419 C17.2371134,18.9677419 18.1443299,19.4193548 18.5979381,19.8709677 C19.0515464,20.3225806 20.8659794,19.4193548 20.8659794,18.9677419 C20.8659794,18.516129 21.3195876,18.0645161 20.8659794,17.6129032 C20.4123711,17.1612903 19.5051546,17.1612903 19.5051546,17.1612903" id="Path-25"></path>
                    <path d="M20.4123711,23.0322581 C20.4123711,23.0322581 20.7399771,23.0322581 21.4203895,23.0322581 C22.1008018,23.0322581 22.2268041,23.0322581 22.2268041,23.483871 C22.2268041,23.9354839 22.2268041,24.3870968 21.7731959,24.3870968" id="Path-26"></path>
                </g>
            </g>
        </g>
    </g>
</svg>