<?xml version="1.0" encoding="UTF-8"?>
<svg width="62px" height="61px" viewBox="0 0 62 61" version="1.1" xmlns="http://www.w3.org/2000/svg" xmlns:xlink="http://www.w3.org/1999/xlink">
    <!-- Generator: Sketch 41.2 (35397) - http://www.bohemiancoding.com/sketch -->
    <title>lawnchairicon</title>
    <desc>Created with Sketch.</desc>
    <defs></defs>
    <g id="Page-1" stroke="none" stroke-width="1" fill="none" fill-rule="evenodd">
        <g id="Artboard" transform="translate(-205.000000, -306.000000)">
            <g id="lawnchairicon" transform="translate(206.000000, 307.000000)">
                <path d="M38,59 C54.5685425,59 60,45.6622933 60,29.0937508 C60,19.6995039 59.9242637,12.248482 54,7 C48.0757363,1.75151799 40.1742956,4.61852778e-14 33,4.61852778e-14 C16.4314575,4.61852778e-14 0,12.5252084 0,29.0937508 C0,38.3962771 7.35389856,49.4973116 14,55 C20.6461014,60.5026884 30.7339837,59 38,59 Z" id="Oval-2" stroke="#000000" fill="#FFFFFF"></path>
                <path d="M21.8636364,10.6533694 L16.5454545,11.0860617 C16.5454545,11.0860617 14.3295455,10.6533694 14.3295455,14.5476001 C14.3295455,18.4418309 15.6590909,25.3649078 15.6590909,25.3649078 L13,25.7976001 L15.6590909,26.6629847 L16.5454545,30.9899078 L13.8863636,42.6726001 C13.8863636,42.6726001 12.1136364,45.268754 16.9886364,44.8360617 C21.8636364,44.4033694 22.3068182,43.9706771 22.3068182,43.9706771 L23.1931818,51.3264463 C23.1931818,51.3264463 23.1931818,53.9226001 28.9545455,52.1918309 C34.7159091,50.4610617 42.25,49.5956771 42.25,49.5956771 C42.25,49.5956771 45.7954545,49.1629847 44.4659091,44.4033694 C43.1363636,39.643754 41.8068182,24.4995232 41.8068182,24.4995232 L43.1363636,24.9322155 L45.7954545,24.0668309 L37.8181818,21.9033694 L34.7159091,22.3360617 L32.9431818,11.9514463 C32.9431818,11.9514463 32.5,9.78798474 29.3977273,10.2206771 C25.8522727,10.2206771 23.1931818,10.6533694 23.1931818,10.6533694 L21.8636364,10.6533694 Z" id="Path-36" fill="#E1CFF3"></path>
                <g id="Group-3" transform="translate(14.772727, 8.000000)">
                    <path d="M23.9363124,37.7131706 L16.1473288,39.1850343 C16.1473288,39.1850343 14.2096305,39.7158122 13.2954545,39.1850343 C12.3812786,38.6542563 12.5015425,37.0682611 12.5015425,37.0682611 L11.5227273,29.4230769 L24.8181818,27.2596154 C24.8181818,27.2596154 25.629275,27.0575208 25.7045455,27.2596154 C25.7798159,27.4617099 26.5909091,32.0192308 26.5909091,32.0192308 C26.5909091,32.0192308 27.4379512,35.9125917 27.0340909,36.7788462 C26.6302306,37.6451007 23.9363124,37.7131706 23.9363124,37.7131706 Z" id="Path-37" fill="#FFFFFF"></path>
                    <path d="M4.43181818,17.3076923 L0.886363636,33.3173077 C0.886363636,33.3173077 0.443181818,35.0480769 2.21590909,35.0480769 C3.98863636,35.0480769 18.6136364,32.4519231 18.6136364,32.4519231 C18.6136364,32.4519231 19.9431818,32.0192308 20.8295455,30.7211538 C21.2727273,29.4230769 25.7045455,13.8461538 25.7045455,13.8461538" id="Path-28" stroke="#000000"></path>
                    <path d="M4.875,24.6634615 L3.54545455,31.5865385 C3.54545455,31.5865385 2.65909091,33.3173077 5.76136364,32.8846154 C8.86363636,32.4519231 14.7183618,32.0171954 17.7272727,30.7211538 C18.4067924,30.4284613 19.1203677,30.6690536 19.5,30.2884615 C19.8796323,29.9078695 20.3863636,26.8269231 20.3863636,26.8269231 C20.3863636,26.8269231 16.4368567,27.3165685 13.7386364,27.6923077 C11.0404161,28.0680469 10.2414821,27.2650048 10.1931818,27.2596154 C10.1448816,27.254226 4.875,24.6634615 4.875,24.6634615 Z" id="Path-38" fill="#FFFFFF"></path>
                    <path d="M7.53409091,17.7403846 L9.75,40.2403846 C9.75,40.2403846 9.75,43.7019231 13.2954545,42.8365385 C16.8409091,41.9711538 29.25,39.8076923 29.25,39.8076923 C29.25,39.8076923 31.9090909,38.9423077 31.4659091,36.3461538 C31.0227273,33.75 28.8068182,14.7115385 28.8068182,14.7115385" id="Path-29" stroke="#000000"></path>
                    <path d="M22.6022727,19.9038462 L19.5,2.59615385 C19.5,2.59615385 19.9431818,-1.68198788e-14 15.5113636,0.432692308 C11.0795455,0.865384615 3.54545455,1.29807692 3.54545455,1.29807692 C3.54545455,1.29807692 1.32954545,1.73076923 1.32954545,3.89423077 C1.32954545,6.05769231 3.98863636,23.3653846 3.98863636,23.3653846 L11.0795455,25.5288462 C11.0795455,25.5288462 12.8522727,26.3942308 14.625,25.9615385 C18.1704545,25.5288462 30.1363636,23.7980769 30.1363636,23.7980769 C30.1363636,23.7980769 32.7954545,23.3653846 30.1363636,22.5 C27.0340909,21.6346154 22.6022727,20.7692308 22.6022727,20.7692308 L22.6022727,19.9038462 Z" id="Path-30" stroke="#000000"></path>
                    <path d="" id="Path-33" stroke="#000000"></path>
                    <path d="M22.6022727,20.7692308 L3.98863636,22.9326923 L22.6022727,20.7692308 Z" id="Path-31" stroke="#000000"></path>
                    <polyline id="Path-34" stroke="#000000" stroke-linecap="round" stroke-linejoin="round" points="7.97727273 1.29807692 10.6363636 22.0673077 20.3863636 25.0961538"></polyline>
                    <polyline id="Path-34" stroke="#000000" stroke-linecap="round" stroke-linejoin="round" points="12.8522727 0.865384615 15.9545455 21.6346154 25.7045455 24.2307692"></polyline>
                    <polygon id="Path-35" stroke="#000000" stroke-linecap="round" stroke-linejoin="round" points="22.6022727 12.9807692 30.1363636 14.7115385 32.3522727 14.2788462 24.8181818 12.5480769"></polygon>
                    <polygon id="Path-35" stroke="#000000" stroke-linecap="round" stroke-linejoin="round" points="0 16.0096154 7.53409091 17.7403846 9.75 17.3076923 2.21590909 15.5769231"></polygon>
                </g>
            </g>
        </g>
    </g>
</svg>