<?xml version="1.0" encoding="UTF-8"?>
<svg width="78px" height="101px" viewBox="0 0 78 101" version="1.1" xmlns="http://www.w3.org/2000/svg" xmlns:xlink="http://www.w3.org/1999/xlink">
    <!-- Generator: Sketch 41.2 (35397) - http://www.bohemiancoding.com/sketch -->
    <title>lawnchair</title>
    <desc>Created with Sketch.</desc>
    <defs></defs>
    <g id="Page-1" stroke="none" stroke-width="1" fill="none" fill-rule="evenodd">
        <g id="Artboard" transform="translate(-86.000000, -193.000000)">
            <g id="lawnchair" transform="translate(86.000000, 194.000000)">
                <path d="M20,5.89637635 L8,6.85791481 C8,6.85791481 3,5.89637635 3,14.5502225 C3,23.2040687 6,38.588684 6,38.588684 L0,39.5502225 L6,41.4732994 L8,51.088684 L2,77.0502225 C2,77.0502225 -2,82.8194533 9,81.8579148 C20,80.8963764 21,79.9348379 21,79.9348379 L23,96.2809917 C23,96.2809917 23,102.050223 36,98.2040687 C49,94.3579148 66,92.4348379 66,92.4348379 C66,92.4348379 74,91.4732994 71,80.8963764 C68,70.3194533 65,36.6656071 65,36.6656071 L68,37.6271456 L74,35.7040687 L56,30.8963764 L49,31.8579148 L45,8.78099174 C45,8.78099174 44,3.97329943 37,4.93483789 C29,4.93483789 23,5.89637635 23,5.89637635 L20,5.89637635 Z" id="Path-36" fill="#E1CFF3"></path>
                <g id="Group-3" transform="translate(4.000000, 0.000000)">
                    <path d="M54.0101408,83.8070458 L36.4349984,87.0778539 C36.4349984,87.0778539 32.062756,88.2573605 30,87.0778539 C27.937244,85.8983473 28.2086088,82.3739136 28.2086088,82.3739136 L26,65.3846154 L56,60.5769231 C56,60.5769231 57.8301589,60.127824 58,60.5769231 C58.1698411,61.0260221 60,71.1538462 60,71.1538462 C60,71.1538462 61.9112746,79.8057592 61,81.7307692 C60.0887254,83.6557792 54.0101408,83.8070458 54.0101408,83.8070458 Z" id="Path-37" fill="#FFFFFF"></path>
                    <path d="M51,59.6153846 L49,68.2692308 C49,68.2692308 49,73.0769231 39,75 C29,76.9230769 23,77.8846154 23,77.8846154" id="Path-40" stroke="#E1CFF3" stroke-width="3"></path>
                    <path d="M10,38.4615385 L2,74.0384615 C2,74.0384615 1,77.8846154 5,77.8846154 C9,77.8846154 42,72.1153846 42,72.1153846 C42,72.1153846 45,71.1538462 47,68.2692308 C48,65.3846154 58,30.7692308 58,30.7692308" id="Path-28" stroke="#B798D5" stroke-width="2"></path>
                    <path d="M11,54.8076923 L8,70.1923077 C8,70.1923077 6,74.0384615 13,73.0769231 C20,72.1153846 33.2106625,71.1493231 40,68.2692308 C41.5332751,67.618803 43.1433938,68.1534524 44,67.3076923 C44.8566062,66.4619322 46,59.6153846 46,59.6153846 C46,59.6153846 37.088292,60.7034856 31,61.5384615 C24.911708,62.3734375 23.1089852,60.5888995 23,60.5769231 C22.8910148,60.5649467 11,54.8076923 11,54.8076923 Z" id="Path-38" fill="#FFFFFF"></path>
                    <path d="M17,39.4230769 L22,89.4230769 C22,89.4230769 22,97.1153846 30,95.1923077 C38,93.2692308 66,88.4615385 66,88.4615385 C66,88.4615385 72,86.5384615 71,80.7692308 C70,75 65,32.6923077 65,32.6923077" id="Path-29" stroke="#B798D5" stroke-width="2"></path>
                    <path d="M51,44.2307692 L44,5.76923077 C44,5.76923077 45,2.19824159e-14 35,0.961538462 C25,1.92307692 8,2.88461538 8,2.88461538 C8,2.88461538 3,3.84615385 3,8.65384615 C3,13.4615385 9,51.9230769 9,51.9230769 L25,56.7307692 C25,56.7307692 29,58.6538462 33,57.6923077 C41,56.7307692 68,52.8846154 68,52.8846154 C68,52.8846154 74,51.9230769 68,50 C61,48.0769231 51,46.1538462 51,46.1538462 L51,44.2307692 Z" id="Path-30" stroke="#B798D5" stroke-width="2"></path>
                    <path d="" id="Path-33" stroke="#B798D5" stroke-width="2"></path>
                    <path d="M51,46.1538462 L9,50.9615385 L51,46.1538462 Z" id="Path-31" stroke="#B798D5" stroke-width="2"></path>
                    <polyline id="Path-34" stroke="#B798D5" stroke-width="2" stroke-linecap="round" stroke-linejoin="round" points="8 3.84615385 13.7931034 50.1201923 36 56.7307692"></polyline>
                    <polyline id="Path-34" stroke="#B798D5" stroke-width="2" stroke-linecap="round" stroke-linejoin="round" points="18 2.88461538 24 49.0384615 46 55.7692308"></polyline>
                    <polyline id="Path-34" stroke="#B798D5" stroke-width="2" stroke-linecap="round" stroke-linejoin="round" points="29 1.92307692 36 48.0769231 58 53.8461538"></polyline>
                    <polyline id="Path-32" stroke="#B798D5" stroke-width="2" stroke-linecap="round" stroke-linejoin="round" points="37 0.961538462 45 47.1153846 67 51.9230769"></polyline>
                    <polygon id="Path-35" stroke="#B798D5" stroke-width="2" stroke-linecap="round" stroke-linejoin="round" points="51 28.8461538 68 32.6923077 73 31.7307692 56 27.8846154"></polygon>
                    <polygon id="Path-35" stroke="#B798D5" stroke-width="2" stroke-linecap="round" stroke-linejoin="round" points="0 35.5769231 17 39.4230769 22 38.4615385 5 34.6153846"></polygon>
                </g>
            </g>
        </g>
    </g>
</svg>