<?xml version="1.0" encoding="UTF-8"?>
<svg width="107px" height="93px" viewBox="0 0 107 93" version="1.1" xmlns="http://www.w3.org/2000/svg" xmlns:xlink="http://www.w3.org/1999/xlink">
    <!-- Generator: Sketch 41.2 (35397) - http://www.bohemiancoding.com/sketch -->
    <title>moondog</title>
    <desc>Created with Sketch.</desc>
    <defs></defs>
    <g id="Page-1" stroke="none" stroke-width="1" fill="none" fill-rule="evenodd">
        <g id="Artboard" transform="translate(-208.000000, -59.000000)">
            <g id="moondog" transform="translate(208.000000, 60.000000)">
                <path d="M95.6976322,80.257807 C95.6976322,80.257807 101.452509,53.8378729 99.6506623,42.0956799 C97.8488161,30.353487 86.8033144,28.3964548 86.8033144,28.3964548 C86.8033144,28.3964548 80.8737692,33.2890352 80.8737692,34.2675513 C80.8737692,35.2460674 53.2337302,11.7616815 42.3317255,11.7616815 C39.3669529,11.7616815 39.1317536,0.832307879 20.5900598,4.91206889 C11.695742,6.86910105 2.80142424,23.5038744 2.80142424,23.5038744 C2.80142424,23.5038744 -4.11637848,35.2460674 3.78968177,36.2245834 C11.695742,37.2030995 18.6135447,30.353487 21.5783173,29.3749709 C24.5430899,28.3964548 19.6018023,55.794905 19.6018023,60.6874854 L19.6018023,63.6230337 C19.6018023,63.6230337 13.6722571,64.6015498 14.6605146,69.4941302 C15.6487722,74.3867106 16.6370297,71.4511623 16.6370297,71.4511623 C16.6370297,71.4511623 14.6605146,80.257807 25.5313475,80.257807 C36.4021803,80.257807 43.319983,76.3437427 43.319983,76.3437427 C43.319983,76.3437427 44.3082406,82.2148392 43.319983,83.1933553 C42.3317255,84.1718714 55.1790734,92 65.0616487,92 C74.944224,92 86.8033144,87.1074196 86.8033144,87.1074196 L85.8150569,84.1718714 C85.8150569,84.1718714 90.7563445,88.0859357 93.7211171,84.1718714 C96.6858897,80.257807 95.6976322,80.257807 95.6976322,80.257807 Z" id="Path-12" fill="#DAF4E8"></path>
                <path d="M25.1469194,66.9685535 C25.1469194,66.9685535 24.5763666,69.6202153 24.6303318,69.7358491 C25.1469194,70.8427673 26.8689868,71.9496855 28.7630332,71.9496855 C30.6570795,71.9496855 30.7279619,71.9103207 34.9620853,71.3962264 C39.1962087,70.8821322 54.8253737,68.5457362 68.5402844,63.6477987" id="Path-3" stroke="#81CBA9" stroke-width="2"></path>
                <path d="M40.6445498,18.2641509 C40.6445498,18.2641509 22.563981,18.2641509 27.2132701,24.3522013 C28.0604099,25.4614955 31.7936969,29.0438933 34.4454976,30.4402516 C37.0972984,31.8366098 67.6034533,40.754285 72.6729858,39.8490566 C78.8720379,38.7421384 79.3886256,39.8490566 79.3886256,39.8490566 C79.3886256,39.8490566 48.3933649,21.5849057 45.2938389,19.9245283 C42.1943128,18.2641509 40.6445498,18.2641509 40.6445498,18.2641509 Z" id="Path-4" stroke="#81CBA9" stroke-width="2"></path>
                <path d="M94.8551306,27.6765023 C90.2058415,29.8903387 77.2911496,40.9595211 77.2911496,55.3494582 C77.2911496,69.7393953 86.5897278,86.3431689 93.3053676,80.2551186 C100.021007,74.1670683 109.319586,43.1733576 108.28641,39.8526029 C107.253235,36.5318482 103.637121,26.569584 100.021007,26.569584 C96.4048937,26.569584 99.5044197,25.4626658 94.8551306,27.6765023 Z" id="Path-5" stroke="#81CBA9" stroke-width="2" transform="translate(92.828372, 53.920477) rotate(-13.000000) translate(-92.828372, -53.920477) "></path>
                <path d="M85.5876777,31.5471698 C85.5876777,31.5471698 59.7582938,6.08805031 44.7772512,8.30188679" id="Path-6" stroke="#81CBA9" stroke-width="2"></path>
                <path d="M14.8151659,32.1006289 C14.8151659,32.1006289 18.9437697,29.7584984 27.2132701,23.245283 C35.4827706,16.7320676 43.024835,13.1602398 44.2606635,9.40880503 C44.4028659,8.97714075 44.2606635,9.40880503 44.5409087,8.15596432 C46.3604609,0.0216261092 26.4122777,-2.48798342 20.4976303,3.32075472 C14.2985782,9.40880503 7.06635071,18.8176101 7.06635071,18.8176101 C7.06635071,18.8176101 2.41706161,30.4402516 7.06635071,32.1006289 C11.7156398,33.7610063 14.8151659,32.1006289 14.8151659,32.1006289 Z" id="Path-7" stroke="#81CBA9" stroke-width="2"></path>
                <ellipse id="Oval" stroke="#81CBA9" stroke-width="2" cx="58.9834123" cy="55.3459119" rx="1.80805687" ry="1.66037736"></ellipse>
                <path d="M21.014218,68.6289308 C21.014218,68.6289308 21.014218,68.6289308 21.014218,70.8427673 C21.014218,73.0566038 22.563981,77.4842767 32.8957346,76.3773585 C43.2274882,75.2704403 45.2938389,72.5905129 47.8767773,72.5905129 C50.4597156,72.5905129 49.4265403,78.591195 49.4265403,78.591195 C49.4265403,78.591195 68.5402844,89.1069182 91.2701422,81.3584906 M90.7535545,81.3584906 L92.8199052,83.0188679 C92.8199052,83.0188679 71.7270086,94.1347613 48.9099526,81.9119497 C46.8436019,80.8050314 47.3601896,80.8050314 47.3601896,80.8050314 L48.3933649,79.1446541" id="Path-11" stroke="#81CBA9" stroke-width="2"></path>
                <path d="M25.9527962,64.6163522 C25.9527962,64.6163522 23.8864455,64.0628931 24.9196209,62.9559748 C25.9527962,61.8490566 29.0523223,61.2955975 29.0523223,63.509434 C29.0523223,65.7232704 28.0191469,66.2767296 28.0191469,66.2767296 L27.5025592,65.7232704 C27.5025592,65.7232704 25.9527962,66.8301887 25.9527962,66.8301887 C25.9527962,66.8301887 24.9196209,66.8301887 24.9196209,66.2767296 C24.9196209,65.7232704 25.9527962,64.6163522 25.9527962,64.6163522 Z" id="Path-8" stroke="#81CBA9" stroke-width="2"></path>
                <path d="M26.1800948,60.8805031 C26.1800948,60.8805031 21.014218,60.8805031 19.9810427,63.0943396 C18.9478673,65.3081761 19.2447739,68.0754717 21.014218,68.6289308 C22.7836621,69.1823899 23.5971564,68.0060914 24.6303318,66.4150943" id="Path-9" stroke="#81CBA9" stroke-width="2"></path>
                <path d="M27.2132701,25.4591195 C27.2132701,25.4591195 25.9218009,26.0125786 25.9218009,29.8867925 C25.9218009,33.7610063 24.6303318,53.6855346 24.6303318,55.3459119 L24.6303318,60.8805031" id="Path-10" stroke="#81CBA9" stroke-width="2"></path>
                <ellipse id="Oval" stroke="#81CBA9" stroke-width="2" cx="31.0876777" cy="34.3144654" rx="1.80805687" ry="1.66037736"></ellipse>
            </g>
        </g>
    </g>
</svg>