<?xml version="1.0" encoding="UTF-8"?>
<svg width="62px" height="62px" viewBox="0 0 62 62" version="1.1" xmlns="http://www.w3.org/2000/svg" xmlns:xlink="http://www.w3.org/1999/xlink">
    <!-- Generator: Sketch 41.2 (35397) - http://www.bohemiancoding.com/sketch -->
    <title>moondog-icon</title>
    <desc>Created with Sketch.</desc>
    <defs></defs>
    <g id="Page-1" stroke="none" stroke-width="1" fill="none" fill-rule="evenodd">
        <g id="Artboard" transform="translate(-346.000000, -305.000000)">
            <g id="moondog-icon" transform="translate(347.000000, 306.000000)">
                <circle id="Oval-2" stroke="#000000" fill="#FFFFFF" cx="30" cy="30" r="30"></circle>
                <path d="M45.7755129,45.5194869 C45.7755129,45.5194869 48.2275906,34.1560744 47.4598474,29.1056688 C46.6921043,24.0552632 41.9857601,23.213529 41.9857601,23.213529 C41.9857601,23.213529 39.4592582,25.3178646 39.4592582,25.7387317 C39.4592582,26.1595989 27.6821981,16.0587877 23.0369961,16.0587877 C21.7737452,16.0587877 21.6735298,11.3579819 13.7731559,13.1127178 C9.98340312,13.9544521 6.19365033,21.1091933 6.19365033,21.1091933 C6.19365033,21.1091933 3.24606482,26.1595989 6.61473397,26.580466 C9.98340312,27.0013331 12.9309886,24.0552632 14.1942396,23.6343961 C15.4574905,23.213529 13.3520723,34.9978086 13.3520723,37.1021443 L13.3520723,38.3647457 C13.3520723,38.3647457 10.8255704,38.7856128 11.2466541,40.8899485 C11.6677377,42.9942841 12.0888213,41.7316827 12.0888213,41.7316827 C12.0888213,41.7316827 11.2466541,45.5194869 15.8785741,45.5194869 C20.5104942,45.5194869 23.4580797,43.8360184 23.4580797,43.8360184 C23.4580797,43.8360184 23.8791634,46.3612212 23.4580797,46.7820883 C23.0369961,47.2029554 28.5110835,50.5698925 32.7219199,50.5698925 C36.9327563,50.5698925 41.9857601,48.4655568 41.9857601,48.4655568 L41.5646764,47.2029554 C41.5646764,47.2029554 43.6700946,48.8864239 44.9333456,47.2029554 C46.1965965,45.5194869 45.7755129,45.5194869 45.7755129,45.5194869 Z" id="Path-12" fill="#DAF4E8"></path>
                <path d="M15.7147744,39.8036789 C15.7147744,39.8036789 15.4716693,40.9441786 15.4946631,40.9939136 C15.7147744,41.4700074 16.4485248,41.9461013 17.2555533,41.9461013 C18.0625817,41.9461013 18.0927838,41.9291702 19.8968885,41.7080544 C21.7009933,41.4869386 28.3603766,40.4820371 34.2041212,38.3753973" id="Path-3" stroke="#000000"></path>
                <path d="M22.3181125,18.8555488 C22.3181125,18.8555488 14.614218,18.8555488 16.5952195,21.4740651 C16.9561747,21.9511808 18.5468795,23.4919971 19.6767773,24.0925813 C20.806675,24.6931655 33.8049497,28.5287247 35.9650113,28.1393792 C38.6063466,27.6632853 38.8264579,28.1393792 38.8264579,28.1393792 C38.8264579,28.1393792 25.6197816,20.2838304 24.299114,19.5696896 C22.9784463,18.8555488 22.3181125,18.8555488 22.3181125,18.8555488 Z" id="Path-4" stroke="#000000"></path>
                <path d="M45.4165339,22.9038719 C43.4355325,23.8560597 37.9327507,28.6169983 37.9327507,34.8062186 C37.9327507,40.9954389 41.8947536,48.1368468 44.7562001,45.5183306 C47.6176466,42.8998143 51.5796495,29.5691861 51.139427,28.1409045 C50.6992044,26.7126229 49.1584255,22.4277781 47.6176466,22.4277781 C46.0768677,22.4277781 47.3975354,21.9516842 45.4165339,22.9038719 Z" id="Path-5" stroke="#000000" transform="translate(44.552958, 34.191603) rotate(-13.000000) translate(-44.552958, -34.191603) "></path>
                <path d="M41.4677931,24.5686752 C41.4677931,24.5686752 30.4622295,13.6185163 24.0790027,14.570704" id="Path-6" stroke="#000000"></path>
                <path d="M11.3125489,24.8067221 C11.3125489,24.8067221 13.0716932,23.7993542 16.5952195,20.9979712 C20.1187457,18.1965882 23.332321,16.6603182 23.8588914,15.0467979 C23.919482,14.8611358 23.8588914,15.0467979 23.9783002,14.5079416 C24.7535877,11.0093016 16.253927,9.92989961 13.7337729,12.4282816 C11.0924377,15.0467979 8.01087987,19.0935957 8.01087987,19.0935957 C8.01087987,19.0935957 6.02987843,24.0925813 8.01087987,24.8067221 C9.99188131,25.5208629 11.3125489,24.8067221 11.3125489,24.8067221 Z" id="Path-7" stroke="#000000"></path>
                <ellipse id="Oval" stroke="#000000" cx="30.1320626" cy="34.8046933" rx="0.77038945" ry="0.714140799"></ellipse>
                <path d="M13.9538842,40.5178197 C13.9538842,40.5178197 13.9538842,40.5178197 13.9538842,41.4700074 C13.9538842,42.4221952 14.614218,44.3265706 19.0164434,43.8504768 C23.4186689,43.3743829 24.299114,42.221726 25.3996703,42.221726 C26.5002267,42.221726 26.0600041,44.8026645 26.0600041,44.8026645 C26.0600041,44.8026645 34.2041212,49.3255562 43.8890171,45.9928992 M43.6689058,45.9928992 L44.5493509,46.70704 C44.5493509,46.70704 35.5619428,51.4880694 25.8398928,46.2309461 C24.9594478,45.7548522 25.179559,45.7548522 25.179559,45.7548522 L25.6197816,45.0407114" id="Path-11" stroke="#000000"></path>
                <path d="M16.0581479,38.7919794 C16.0581479,38.7919794 15.1777029,38.5539325 15.6179254,38.0778386 C16.0581479,37.6017448 17.3788156,37.3636978 17.3788156,38.3158856 C17.3788156,39.2680733 16.938593,39.5061202 16.938593,39.5061202 L16.7184818,39.2680733 C16.7184818,39.2680733 16.0581479,39.7441672 16.0581479,39.7441672 C16.0581479,39.7441672 15.6179254,39.7441672 15.6179254,39.5061202 C15.6179254,39.2680733 16.0581479,38.7919794 16.0581479,38.7919794 Z" id="Path-8" stroke="#000000"></path>
                <path d="M16.1549969,37.1851626 C16.1549969,37.1851626 13.9538842,37.1851626 13.5136617,38.1373504 C13.0734391,39.0895381 13.1999471,40.2797728 13.9538842,40.5178197 C14.7078212,40.7558666 15.0544406,40.2499318 15.4946631,39.565632" id="Path-9" stroke="#000000"></path>
                <path d="M16.5952195,21.9501589 C16.5952195,21.9501589 16.0449413,22.1882059 16.0449413,23.8545344 C16.0449413,25.5208629 15.4946631,34.0905525 15.4946631,34.8046933 L15.4946631,37.1851626" id="Path-10" stroke="#000000"></path>
                <ellipse id="Oval" stroke="#000000" cx="18.246054" cy="25.7589099" rx="0.77038945" ry="0.714140799"></ellipse>
            </g>
        </g>
    </g>
</svg>