<?xml version="1.0" encoding="UTF-8"?>
<svg width="62px" height="62px" viewBox="0 0 62 62" version="1.1" xmlns="http://www.w3.org/2000/svg" xmlns:xlink="http://www.w3.org/1999/xlink">
    <!-- Generator: Sketch 41.2 (35397) - http://www.bohemiancoding.com/sketch -->
    <title>morty-icon</title>
    <desc>Created with Sketch.</desc>
    <defs></defs>
    <g id="Page-1" stroke="none" stroke-width="1" fill="none" fill-rule="evenodd">
        <g id="Artboard" transform="translate(-66.000000, -305.000000)">
            <g id="morty-icon" transform="translate(67.000000, 306.000000)">
                <circle id="Oval-2" stroke="#000000" fill="#FFFFFF" cx="30" cy="30" r="30"></circle>
                <path d="M38.6715342,54.8399131 C38.6715342,54.8399131 37.5494899,51.9311362 37.5494899,51.3493809 C37.5494899,50.7676255 45.9648222,46.6953379 47.0868665,41.4595395 C48.2089108,36.2237412 47.0868665,31.5696982 47.0868665,31.5696982 C47.0868665,31.5696982 49.8919773,28.079166 47.0868665,24.0068784 C44.2817558,19.9345908 41.476645,20.5163462 41.476645,20.5163462 C41.476645,20.5163462 40.9156228,18.1893247 39.7935785,18.1893247 C38.6715342,18.1893247 42.0376671,15.2805478 38.110512,12.371771 C34.1833569,9.4629941 33.6223348,8.29948335 30.817224,8.29948335 C28.0121132,8.29948335 23.2807205,8.82616246 20.4756098,10.5714286 C17.670499,12.3166947 10.6204264,12.9535263 10.0594042,14.6987924 C9.49838205,16.4440586 5.57122696,18.1893247 5.57122696,26.3338999 C5.57122696,34.4784751 5.0102048,37.9690073 6.69327127,39.132518 C8.37633774,40.2960288 10.6204264,44.9500718 11.7424707,44.9500718 C12.864515,44.9500718 13.4255371,45.5318271 13.4255371,45.5318271 C13.4255371,45.5318271 14.5475815,47.2770933 15.6696258,47.2770933 C16.7916701,47.2770933 16.7916701,49.0223594 16.7916701,49.0223594 C16.7916701,49.0223594 12.864515,52.5128916 12.864515,53.6764023 C12.864515,54.8399131 32.5002905,59.4939561 35.3054012,57.1669346 C38.110512,54.8399131 38.6715342,54.8399131 38.6715342,54.8399131 Z" id="Path-62" fill="#FFFFD6"></path>
                <path d="M39.9634146,34 C39.9634146,34 42.8292683,35.7142857 43.402439,34.5714286 C43.9756098,33.4285714 44.5487805,32.2857143 41.6829268,31.1428571" id="Path-44" stroke="#000000"></path>
                <path d="M41.6829268,37.4285714 C41.6829268,37.4285714 43.402439,41.4285714 42.8292683,42 C42.2560976,42.5714286 41.6829268,42 41.1097561,41.4285714 C41.1097561,42.5714286 40.7926451,45.9391343 39.3902439,43.1428571 C38.8170732,42 38.8170732,41.4285714 38.8170732,41.4285714" id="Path-46" stroke="#000000"></path>
                <path d="M31.9390244,17.4285714 C31.9390244,17.4285714 30.7926829,19.1428571 29.0731707,19.7142857 C27.3536585,20.2857143 26.7804878,20.8571429 26.7804878,20.8571429" id="Path-47" stroke="#000000"></path>
                <path d="M40.5365854,16.8571429 C40.5365854,16.8571429 41.1097561,18.5714286 43.9756098,17.4285714" id="Path-48" stroke="#000000"></path>
                <path d="M18.1829268,37.4285714 C18.1829268,37.4285714 15.3170732,39.1428571 15.8902439,41.4285714 C16.4634146,43.7142857 18.7560976,45.4285714 21.0487805,44.2857143" id="Path-49" stroke="#000000"></path>
                <path d="M50.8536585,28.8571429 C50.8536585,28.8571429 52.5731707,39.1428571 47.9878049,43.7142857 C43.402439,48.2857143 43.402439,47.7142857 41.1097561,48.8571429 C38.8170732,50 30.7926829,50.5714286 29.6463415,50.5714286 C28.5,50.5714286 22.195122,49.4285714 19.3292683,44.8571429" id="Path-50" stroke="#000000"></path>
                <path d="M15.8902439,39.7142857 C15.8902439,39.7142857 10.6984503,27.2869832 21.0487805,18 C26.7804878,12.8571429 33.0853659,13.4285714 33.0853659,13.4285714 C33.0853659,13.4285714 38.2439024,13.4285714 41.1097561,15.1428571 C43.9756098,16.8571429 45.1219512,18.5714286 45.1219512,18.5714286" id="Path-51" stroke="#000000"></path>
                <path d="M42.8292683,16.8571429 C42.8292683,16.8571429 44.5487805,12.8571429 41.6829268,11.1428571 C38.8170732,9.42857143 37.097561,7.14285714 36.5243902,7.14285714 C35.9512195,7.14285714 33.0853659,6 30.7926829,6 C28.5,6 26.2073171,6 25.0609756,6.57142857 C23.9146341,7.14285714 16.9930428,10.125987 14.7439024,11.7142857 C12.4947621,13.3025844 11.304878,16.2857143 11.304878,16.2857143 C11.304878,16.2857143 8.43902439,19.1428571 8.43902439,24.8571429 C8.43902439,30.5714286 7.86585366,35.7142857 9.58536585,36.8571429 C11.304878,38 12.4512195,40.8571429 13.0243902,41.4285714 C13.597561,42 14.7439024,43.1428571 15.8902439,42.5714286" id="Path-52" stroke="#000000"></path>
                <path d="M26.2073171,23.1428571 C26.2073171,23.1428571 22.7682927,26 24.4878049,31.1428571 C26.2073171,36.2857143 35.3780488,35.1428571 36.5243902,31.1428571 C37.6707317,27.1428571 37.6707317,24.2857143 34.804878,22.5714286 C31.9390244,20.8571429 31.4561882,21.3082817 29.6463415,21.4285714 C27.8364947,21.5488611 26.2073171,23.1428571 26.2073171,23.1428571 Z" id="Path-53" stroke="#000000"></path>
                <path d="M39.9634146,24.2857143 C39.9634146,24.8571429 40.5365854,29.4285714 43.402439,30.5714286 C46.2682927,31.7142857 48.5609756,30.5714286 49.1341463,30 C49.7073171,29.4285714 52,28.2857143 51.4268293,24.8571429 C50.8536585,21.4285714 49.7073171,19.7142857 47.9878049,19.1428571 C46.2682927,18.5714286 43.402439,18 41.6829268,20.2857143 C39.9634146,22.5714286 39.9634146,23.7142857 39.9634146,24.2857143 Z" id="Path-54" stroke="#000000"></path>
                <path id="Path-55" stroke="#000000" stroke-linecap="round"></path>
                <path d="M47.9878049,23.4642857 L48.9067532,23.9642857" id="Path-56" stroke="#000000" stroke-linecap="round"></path>
                <path d="M28.5,28.5267857 L29.6463415,29.0267857" id="Path-57" stroke="#000000" stroke-linecap="round"></path>
                <path d="M28.5,28.2857143 L28.5,29.25" id="Path-58" stroke="#000000" stroke-linecap="round"></path>
                <path d="M28.5,29.0267857 L29.6463415,28.5267857" id="Path-59" stroke="#000000" stroke-linecap="round"></path>
                <path d="M20.4756098,46.5714286 C20.4756098,46.5714286 17.0365854,50 16.4634146,51.1428571" id="Path-60" stroke="#000000"></path>
                <path d="M41.1097561,48.8571429 C41.1097561,48.8571429 42.2560976,50.5714286 42.2560976,52.2857143" id="Path-61" stroke="#000000"></path>
            </g>
        </g>
    </g>
</svg>