<?xml version="1.0" encoding="UTF-8"?>
<svg width="87px" height="96px" viewBox="0 0 87 96" version="1.1" xmlns="http://www.w3.org/2000/svg" xmlns:xlink="http://www.w3.org/1999/xlink">
    <!-- Generator: Sketch 41.2 (35397) - http://www.bohemiancoding.com/sketch -->
    <title>morty</title>
    <desc>Created with Sketch.</desc>
    <defs></defs>
    <g id="Page-1" stroke="none" stroke-width="1" fill="none" fill-rule="evenodd">
        <g id="Artboard" transform="translate(-361.000000, -193.000000)">
            <g id="morty" transform="translate(361.000000, 194.000000)">
                <path d="M61.6117434,89.2267643 C61.6117434,89.2267643 59.558641,83.9126527 59.558641,82.8498304 C59.558641,81.7870081 74.9569087,74.3472519 77.0100111,64.7818511 C79.0631135,55.2164503 77.0100111,46.7138717 77.0100111,46.7138717 C77.0100111,46.7138717 82.142767,40.3369379 77.0100111,32.8971817 C71.8772552,25.4574255 66.7444993,26.5202478 66.7444993,26.5202478 C66.7444993,26.5202478 65.7179481,22.2689585 63.6648458,22.2689585 C61.6117434,22.2689585 67.7710505,16.954847 60.5851922,11.6407354 C53.399334,6.32662383 52.3727828,4.2009792 47.2400269,4.2009792 C42.107271,4.2009792 33.4498291,5.16318141 28.3170732,8.35164835 C23.1843173,11.5401153 10.2841844,12.7035577 9.25763324,15.8920247 C8.23108206,19.0804916 1.0452238,22.2689585 1.0452238,37.1484709 C1.0452238,52.0279833 0.0186726187,58.4049172 3.09832616,60.5305618 C6.1779797,62.6562064 10.2841844,71.158785 12.3372868,71.158785 C14.3903891,71.158785 15.4169403,72.2216073 15.4169403,72.2216073 C15.4169403,72.2216073 17.4700427,75.4100742 19.523145,75.4100742 C21.5762474,75.4100742 21.5762474,78.5985412 21.5762474,78.5985412 C21.5762474,78.5985412 14.3903891,84.975475 14.3903891,87.1011197 C14.3903891,89.2267643 50.3196804,97.7293428 55.4524363,93.4780535 C60.5851922,89.2267643 61.6117434,89.2267643 61.6117434,89.2267643 Z" id="Path-62" fill="#FFFFD6"></path>
                <path d="M63.9756098,51.1538462 C63.9756098,51.1538462 69.2195122,54.2857143 70.2682927,52.1978022 C71.3170732,50.1098901 72.3658537,48.021978 67.1219512,45.9340659" id="Path-44" stroke="#E2E16F" stroke-width="2"></path>
                <path d="M67.1219512,57.4175824 C67.1219512,57.4175824 70.2682927,64.7252747 69.2195122,65.7692308 C68.1707317,66.8131868 67.1219512,65.7692308 66.0731707,64.7252747 C66.0731707,66.8131868 65.4929251,72.9657262 62.9268293,67.8571429 C61.8780488,65.7692308 61.8780488,64.7252747 61.8780488,64.7252747" id="Path-46" stroke="#E2E16F" stroke-width="2"></path>
                <path d="M49.2926829,20.8791209 C49.2926829,20.8791209 47.195122,24.010989 44.0487805,25.0549451 C40.902439,26.0989011 39.8536585,27.1428571 39.8536585,27.1428571" id="Path-47" stroke="#E2E16F" stroke-width="2"></path>
                <path d="M65.0243902,19.8351648 C65.0243902,19.8351648 66.0731707,22.967033 71.3170732,20.8791209" id="Path-48" stroke="#E2E16F" stroke-width="2"></path>
                <path d="M24.1219512,57.4175824 C24.1219512,57.4175824 18.8780488,60.5494505 19.9268293,64.7252747 C20.9756098,68.9010989 25.1707317,72.032967 29.3658537,69.9450549" id="Path-49" stroke="#E2E16F" stroke-width="2"></path>
                <path d="M83.902439,41.7582418 C83.902439,41.7582418 87.0487805,60.5494505 78.6585366,68.9010989 C70.2682927,77.2527473 70.2682927,76.2087912 66.0731707,78.2967033 C61.8780488,80.3846154 47.195122,81.4285714 45.097561,81.4285714 C43,81.4285714 31.4634146,79.3406593 26.2195122,70.989011" id="Path-50" stroke="#E2E16F" stroke-width="2"></path>
                <path d="M19.9268293,61.5934066 C19.9268293,61.5934066 10.4269515,38.8896809 29.3658537,21.9230769 C39.8536585,12.5274725 51.3902439,13.5714286 51.3902439,13.5714286 C51.3902439,13.5714286 60.8292683,13.5714286 66.0731707,16.7032967 C71.3170732,19.8351648 73.4146341,22.967033 73.4146341,22.967033" id="Path-51" stroke="#E2E16F" stroke-width="2"></path>
                <path d="M69.2195122,19.8351648 C69.2195122,19.8351648 72.3658537,12.5274725 67.1219512,9.3956044 C61.8780488,6.26373626 58.7317073,2.08791209 57.6829268,2.08791209 C56.6341463,2.08791209 51.3902439,0 47.195122,0 C43,0 38.804878,-5.50536417e-16 36.7073171,1.04395604 C34.6097561,2.08791209 21.9447166,7.53786087 17.8292683,10.4395604 C13.71382,13.34126 11.5365854,18.7912088 11.5365854,18.7912088 C11.5365854,18.7912088 6.29268293,24.010989 6.29268293,34.4505495 C6.29268293,44.8901099 5.24390244,54.2857143 8.3902439,56.3736264 C11.5365854,58.4615385 13.6341463,63.6813187 14.6829268,64.7252747 C15.7317073,65.7692308 17.8292683,67.8571429 19.9268293,66.8131868" id="Path-52" stroke="#E2E16F" stroke-width="2"></path>
                <path d="M38.804878,31.3186813 C38.804878,31.3186813 32.5121951,36.5384615 35.6585366,45.9340659 C38.804878,55.3296703 55.5853659,53.2417582 57.6829268,45.9340659 C59.7804878,38.6263736 59.7804878,33.4065934 54.5365854,30.2747253 C49.2926829,27.1428571 48.4091954,27.9670531 45.097561,28.1868132 C41.7859265,28.4065732 38.804878,31.3186813 38.804878,31.3186813 Z" id="Path-53" stroke="#E2E16F" stroke-width="2"></path>
                <path d="M63.9756098,33.4065934 C63.9756098,34.4505495 65.0243902,42.8021978 70.2682927,44.8901099 C75.5121951,46.978022 79.7073171,44.8901099 80.7560976,43.8461538 C81.804878,42.8021978 86,40.7142857 84.9512195,34.4505495 C83.902439,28.1868132 81.804878,25.0549451 78.6585366,24.010989 C75.5121951,22.967033 70.2682927,21.9230769 67.1219512,26.0989011 C63.9756098,30.2747253 63.9756098,32.3626374 63.9756098,33.4065934 Z" id="Path-54" stroke="#E2E16F" stroke-width="2"></path>
                <path d="M79.7795232,31.3186813 L79.2190299,33.0803571" id="Path-55" stroke="#E2E16F" stroke-width="2" stroke-linecap="round"></path>
                <path d="M78.6585366,31.9059066 L80.3400164,32.4931319" id="Path-56" stroke="#E2E16F" stroke-width="2" stroke-linecap="round"></path>
                <path d="M43,41.1547047 L45.097561,42.0355426" id="Path-57" stroke="#E2E16F" stroke-width="2" stroke-linecap="round"></path>
                <path d="M44.0487805,40.7142857 L44.0487805,42.4759615" id="Path-58" stroke="#E2E16F" stroke-width="2" stroke-linecap="round"></path>
                <path d="M43,42.0355426 L45.097561,41.1547047" id="Path-59" stroke="#E2E16F" stroke-width="2" stroke-linecap="round"></path>
                <path d="M28.3170732,74.1208791 C28.3170732,74.1208791 22.0243902,80.3846154 20.9756098,82.4725275" id="Path-60" stroke="#E2E16F" stroke-width="2"></path>
                <path d="M66.0731707,78.2967033 C66.0731707,78.2967033 68.1707317,81.4285714 68.1707317,84.5604396" id="Path-61" stroke="#E2E16F" stroke-width="2"></path>
            </g>
        </g>
    </g>
</svg>